<svg xmlns="http://www.w3.org/2000/svg" xmlns:xlink="http://www.w3.org/1999/xlink" width="72" zoomAndPan="magnify" viewBox="0 0 54 46.499999" height="62" preserveAspectRatio="xMidYMid meet" version="1.0"><defs><clipPath id="523e622f54"><path d="M 0.289062 0 L 52.378906 0 L 52.378906 45.515625 L 0.289062 45.515625 Z M 0.289062 0 " clip-rule="nonzero"/></clipPath><clipPath id="581a7300d6"><path d="M 2.347656 7.265625 C -1.867188 14.214844 1.101562 20.980469 4.835938 24.566406 L 26.667969 45.515625 L 48.042969 24.644531 C 51.515625 20.78125 52.84375 16.6875 52.105469 12.125 C 51.085938 5.816406 45.886719 0.921875 39.464844 0.222656 C 35.523438 -0.203125 31.71875 0.914062 28.75 3.382812 C 27.949219 4.042969 27.234375 4.789062 26.613281 5.59375 C 25.875 4.675781 25.007812 3.835938 24.027344 3.089844 C 20.613281 0.496094 16.265625 -0.535156 12.089844 0.265625 C 8.136719 1.03125 4.585938 3.582031 2.347656 7.265625 Z M 2.347656 7.265625 " clip-rule="nonzero"/></clipPath><clipPath id="a6554d0503"><path d="M 2.925781 1.097656 L 53.566406 1.097656 L 53.566406 45.515625 L 2.925781 45.515625 Z M 2.925781 1.097656 " clip-rule="nonzero"/></clipPath><clipPath id="c13216b76c"><path d="M 4.929688 8.332031 C 0.828125 15.089844 3.71875 21.664062 7.347656 25.152344 L 28.570312 45.515625 L 49.347656 25.226562 C 52.722656 21.472656 54.015625 17.488281 53.296875 13.054688 C 52.304688 6.921875 47.25 2.164062 41.007812 1.484375 C 37.179688 1.074219 33.480469 2.15625 30.59375 4.554688 C 29.816406 5.199219 29.121094 5.921875 28.515625 6.707031 C 27.796875 5.8125 26.957031 4.996094 26.003906 4.273438 C 22.683594 1.75 18.457031 0.746094 14.398438 1.527344 C 10.554688 2.269531 7.101562 4.75 4.929688 8.332031 Z M 4.929688 8.332031 " clip-rule="nonzero"/></clipPath></defs><g clip-path="url(#523e622f54)"><g clip-path="url(#581a7300d6)"><path fill="#8c52ff" d="M 0.289062 0 L 52.378906 0 L 52.378906 45.515625 L 0.289062 45.515625 Z M 0.289062 0 " fill-opacity="1" fill-rule="nonzero"/></g></g><g clip-path="url(#a6554d0503)"><g clip-path="url(#c13216b76c)"><path fill="#222222" d="M 2.925781 1.269531 L 53.566406 1.269531 L 53.566406 45.515625 L 2.925781 45.515625 Z M 2.925781 1.269531 " fill-opacity="1" fill-rule="nonzero"/></g></g></svg>