<svg xmlns="http://www.w3.org/2000/svg" xmlns:xlink="http://www.w3.org/1999/xlink" width="215" zoomAndPan="magnify" viewBox="0 0 161.25 50.249999" height="67" preserveAspectRatio="xMidYMid meet" version="1.0"><defs><g/><clipPath id="6cf7b35ceb"><path d="M 0.816406 0 L 52.695312 0 L 52.695312 45.328125 L 0.816406 45.328125 Z M 0.816406 0 " clip-rule="nonzero"/></clipPath><clipPath id="fc93403b5c"><path d="M 2.871094 7.238281 C -1.332031 14.15625 1.628906 20.890625 5.347656 24.46875 L 27.089844 45.328125 L 48.375 24.542969 C 51.832031 20.695312 53.15625 16.617188 52.421875 12.074219 C 51.40625 5.792969 46.226562 0.917969 39.832031 0.222656 C 35.910156 -0.199219 32.117188 0.910156 29.160156 3.367188 C 28.367188 4.027344 27.652344 4.765625 27.035156 5.570312 C 26.296875 4.65625 25.433594 3.820312 24.460938 3.078125 C 21.058594 0.492188 16.730469 -0.535156 12.570312 0.265625 C 8.632812 1.027344 5.097656 3.566406 2.871094 7.238281 Z M 2.871094 7.238281 " clip-rule="nonzero"/></clipPath><clipPath id="41cbff40f5"><path d="M 3.441406 1.089844 L 53.875 1.089844 L 53.875 45.328125 L 3.441406 45.328125 Z M 3.441406 1.089844 " clip-rule="nonzero"/></clipPath><clipPath id="edde1c1c72"><path d="M 5.4375 8.300781 C 1.355469 15.027344 4.230469 21.574219 7.847656 25.046875 L 28.984375 45.328125 L 49.675781 25.121094 C 53.035156 21.382812 54.324219 17.417969 53.609375 13.003906 C 52.621094 6.894531 47.585938 2.15625 41.371094 1.480469 C 37.558594 1.066406 33.871094 2.148438 30.996094 4.535156 C 30.222656 5.179688 29.53125 5.898438 28.929688 6.679688 C 28.214844 5.789062 27.375 4.976562 26.425781 4.253906 C 23.121094 1.742188 18.914062 0.746094 14.871094 1.519531 C 11.039062 2.261719 7.605469 4.730469 5.4375 8.300781 Z M 5.4375 8.300781 " clip-rule="nonzero"/></clipPath></defs><g fill="#000000" fill-opacity="1"><g transform="translate(45.912079, 40.991841)"><g><path d="M 1.328125 0 L 1.328125 -11.03125 L 3.828125 -11.03125 L 3.828125 -2.34375 L 8.65625 -2.34375 L 8.65625 0 Z M 1.328125 0 "/></g></g></g><g fill="#000000" fill-opacity="1"><g transform="translate(54.990369, 40.991841)"><g><path d="M 5.265625 0.21875 C 4.347656 0.21875 3.539062 0.0351562 2.84375 -0.328125 C 2.144531 -0.703125 1.597656 -1.21875 1.203125 -1.875 C 0.804688 -2.53125 0.609375 -3.285156 0.609375 -4.140625 C 0.609375 -5.003906 0.804688 -5.757812 1.203125 -6.40625 C 1.597656 -7.0625 2.144531 -7.570312 2.84375 -7.9375 C 3.539062 -8.3125 4.347656 -8.5 5.265625 -8.5 C 6.179688 -8.5 6.988281 -8.3125 7.6875 -7.9375 C 8.382812 -7.570312 8.925781 -7.0625 9.3125 -6.40625 C 9.707031 -5.757812 9.90625 -5.003906 9.90625 -4.140625 C 9.90625 -3.285156 9.707031 -2.53125 9.3125 -1.875 C 8.925781 -1.21875 8.382812 -0.703125 7.6875 -0.328125 C 6.988281 0.0351562 6.179688 0.21875 5.265625 0.21875 Z M 2.984375 -4.140625 C 2.984375 -3.472656 3.191406 -2.921875 3.609375 -2.484375 C 4.035156 -2.054688 4.585938 -1.84375 5.265625 -1.84375 C 5.941406 -1.84375 6.488281 -2.054688 6.90625 -2.484375 C 7.320312 -2.921875 7.53125 -3.472656 7.53125 -4.140625 C 7.53125 -4.828125 7.320312 -5.382812 6.90625 -5.8125 C 6.488281 -6.238281 5.941406 -6.453125 5.265625 -6.453125 C 4.585938 -6.453125 4.035156 -6.238281 3.609375 -5.8125 C 3.191406 -5.382812 2.984375 -4.828125 2.984375 -4.140625 Z M 2.984375 -4.140625 "/></g></g></g><g fill="#000000" fill-opacity="1"><g transform="translate(65.502906, 40.991841)"><g><path d="M 3.578125 0 L 0.140625 -8.28125 L 2.765625 -8.28125 L 3.6875 -5.671875 L 4.796875 -2.875 L 5.875 -5.671875 L 6.828125 -8.28125 L 9.421875 -8.28125 L 5.96875 0 Z M 3.578125 0 "/></g></g></g><g fill="#000000" fill-opacity="1"><g transform="translate(75.069787, 40.991841)"><g><path d="M 5.109375 0.21875 C 4.222656 0.21875 3.441406 0.0351562 2.765625 -0.328125 C 2.085938 -0.703125 1.554688 -1.21875 1.171875 -1.875 C 0.796875 -2.53125 0.609375 -3.285156 0.609375 -4.140625 C 0.609375 -5.003906 0.800781 -5.757812 1.1875 -6.40625 C 1.570312 -7.0625 2.101562 -7.570312 2.78125 -7.9375 C 3.457031 -8.3125 4.242188 -8.5 5.140625 -8.5 C 6.085938 -8.5 6.90625 -8.285156 7.59375 -7.859375 C 8.28125 -7.441406 8.804688 -6.851562 9.171875 -6.09375 C 9.535156 -5.34375 9.691406 -4.460938 9.640625 -3.453125 L 3 -3.453125 C 3.113281 -2.878906 3.363281 -2.441406 3.75 -2.140625 C 4.132812 -1.847656 4.601562 -1.703125 5.15625 -1.703125 C 5.550781 -1.703125 5.914062 -1.773438 6.25 -1.921875 C 6.582031 -2.078125 6.847656 -2.289062 7.046875 -2.5625 L 9.46875 -2.5625 C 9.113281 -1.695312 8.550781 -1.015625 7.78125 -0.515625 C 7.019531 -0.0234375 6.128906 0.21875 5.109375 0.21875 Z M 3.015625 -4.96875 L 7.3125 -4.96875 C 7.175781 -5.46875 6.921875 -5.863281 6.546875 -6.15625 C 6.171875 -6.445312 5.707031 -6.59375 5.15625 -6.59375 C 4.625 -6.59375 4.164062 -6.445312 3.78125 -6.15625 C 3.40625 -5.863281 3.148438 -5.46875 3.015625 -4.96875 Z M 3.015625 -4.96875 "/></g></g></g><g fill="#8c52ff" fill-opacity="1"><g transform="translate(85.308446, 40.991841)"><g><path d="M 4.203125 0 L 4.203125 -3.859375 L 0.140625 -11.03125 L 3 -11.03125 L 4.359375 -8.484375 L 5.46875 -6.484375 L 6.5625 -8.484375 L 7.921875 -11.03125 L 10.765625 -11.03125 L 6.71875 -3.890625 L 6.71875 0 Z M 4.203125 0 "/></g></g></g><g fill="#8c52ff" fill-opacity="1"><g transform="translate(96.215004, 40.991841)"><g><path d="M 5.265625 0.21875 C 4.347656 0.21875 3.539062 0.0351562 2.84375 -0.328125 C 2.144531 -0.703125 1.597656 -1.21875 1.203125 -1.875 C 0.804688 -2.53125 0.609375 -3.285156 0.609375 -4.140625 C 0.609375 -5.003906 0.804688 -5.757812 1.203125 -6.40625 C 1.597656 -7.0625 2.144531 -7.570312 2.84375 -7.9375 C 3.539062 -8.3125 4.347656 -8.5 5.265625 -8.5 C 6.179688 -8.5 6.988281 -8.3125 7.6875 -7.9375 C 8.382812 -7.570312 8.925781 -7.0625 9.3125 -6.40625 C 9.707031 -5.757812 9.90625 -5.003906 9.90625 -4.140625 C 9.90625 -3.285156 9.707031 -2.53125 9.3125 -1.875 C 8.925781 -1.21875 8.382812 -0.703125 7.6875 -0.328125 C 6.988281 0.0351562 6.179688 0.21875 5.265625 0.21875 Z M 2.984375 -4.140625 C 2.984375 -3.472656 3.191406 -2.921875 3.609375 -2.484375 C 4.035156 -2.054688 4.585938 -1.84375 5.265625 -1.84375 C 5.941406 -1.84375 6.488281 -2.054688 6.90625 -2.484375 C 7.320312 -2.921875 7.53125 -3.472656 7.53125 -4.140625 C 7.53125 -4.828125 7.320312 -5.382812 6.90625 -5.8125 C 6.488281 -6.238281 5.941406 -6.453125 5.265625 -6.453125 C 4.585938 -6.453125 4.035156 -6.238281 3.609375 -5.8125 C 3.191406 -5.382812 2.984375 -4.828125 2.984375 -4.140625 Z M 2.984375 -4.140625 "/></g></g></g><g fill="#8c52ff" fill-opacity="1"><g transform="translate(106.727541, 40.991841)"><g><path d="M 4.5 0.21875 C 3.425781 0.21875 2.582031 -0.117188 1.96875 -0.796875 C 1.351562 -1.472656 1.046875 -2.382812 1.046875 -3.53125 L 1.046875 -8.28125 L 3.4375 -8.28125 L 3.4375 -3.765625 C 3.4375 -3.160156 3.578125 -2.6875 3.859375 -2.34375 C 4.148438 -2.007812 4.550781 -1.84375 5.0625 -1.84375 C 5.601562 -1.84375 6.035156 -2.03125 6.359375 -2.40625 C 6.691406 -2.789062 6.859375 -3.304688 6.859375 -3.953125 L 6.859375 -8.28125 L 9.25 -8.28125 L 9.25 0 L 7.46875 0 L 7.21875 -0.9375 C 6.894531 -0.539062 6.492188 -0.25 6.015625 -0.0625 C 5.546875 0.125 5.039062 0.21875 4.5 0.21875 Z M 4.5 0.21875 "/></g></g></g><g fill="#8c52ff" fill-opacity="1"><g transform="translate(117.177035, 40.991841)"><g><path d="M 1.203125 0 L 1.203125 -8.28125 L 2.984375 -8.28125 L 3.296875 -7.171875 C 3.566406 -7.554688 3.898438 -7.835938 4.296875 -8.015625 C 4.703125 -8.191406 5.207031 -8.28125 5.8125 -8.28125 L 6.71875 -8.28125 L 6.71875 -6.09375 L 5.796875 -6.09375 C 5.117188 -6.09375 4.582031 -5.910156 4.1875 -5.546875 C 3.789062 -5.179688 3.59375 -4.550781 3.59375 -3.65625 L 3.59375 0 Z M 1.203125 0 "/></g></g></g><g fill="#8c52ff" fill-opacity="1"><g transform="translate(124.427056, 40.991841)"><g><path d="M 4.390625 0.21875 C 3.628906 0.21875 2.96875 0.0976562 2.40625 -0.140625 C 1.84375 -0.378906 1.40625 -0.710938 1.09375 -1.140625 C 0.78125 -1.578125 0.625 -2.085938 0.625 -2.671875 L 2.984375 -2.671875 C 2.992188 -2.328125 3.125 -2.054688 3.375 -1.859375 C 3.625 -1.660156 3.972656 -1.5625 4.421875 -1.5625 C 4.796875 -1.5625 5.085938 -1.628906 5.296875 -1.765625 C 5.503906 -1.910156 5.609375 -2.101562 5.609375 -2.34375 C 5.609375 -2.613281 5.46875 -2.832031 5.1875 -3 C 4.90625 -3.175781 4.441406 -3.316406 3.796875 -3.421875 C 2.742188 -3.609375 1.96875 -3.910156 1.46875 -4.328125 C 0.976562 -4.753906 0.734375 -5.304688 0.734375 -5.984375 C 0.734375 -6.796875 1.035156 -7.414062 1.640625 -7.84375 C 2.242188 -8.28125 3.101562 -8.5 4.21875 -8.5 C 5.320312 -8.5 6.1875 -8.257812 6.8125 -7.78125 C 7.4375 -7.3125 7.773438 -6.640625 7.828125 -5.765625 L 5.546875 -5.765625 C 5.523438 -6.085938 5.394531 -6.332031 5.15625 -6.5 C 4.925781 -6.675781 4.609375 -6.765625 4.203125 -6.765625 C 3.847656 -6.765625 3.566406 -6.695312 3.359375 -6.5625 C 3.160156 -6.425781 3.0625 -6.234375 3.0625 -5.984375 C 3.0625 -5.734375 3.191406 -5.535156 3.453125 -5.390625 C 3.722656 -5.253906 4.210938 -5.113281 4.921875 -4.96875 C 6.960938 -4.550781 7.984375 -3.671875 7.984375 -2.328125 C 7.984375 -1.546875 7.660156 -0.925781 7.015625 -0.46875 C 6.378906 -0.0078125 5.503906 0.21875 4.390625 0.21875 Z M 4.390625 0.21875 "/></g></g></g><g fill="#8c52ff" fill-opacity="1"><g transform="translate(133.048281, 40.991841)"><g><path d="M 5.109375 0.21875 C 4.222656 0.21875 3.441406 0.0351562 2.765625 -0.328125 C 2.085938 -0.703125 1.554688 -1.21875 1.171875 -1.875 C 0.796875 -2.53125 0.609375 -3.285156 0.609375 -4.140625 C 0.609375 -5.003906 0.800781 -5.757812 1.1875 -6.40625 C 1.570312 -7.0625 2.101562 -7.570312 2.78125 -7.9375 C 3.457031 -8.3125 4.242188 -8.5 5.140625 -8.5 C 6.085938 -8.5 6.90625 -8.285156 7.59375 -7.859375 C 8.28125 -7.441406 8.804688 -6.851562 9.171875 -6.09375 C 9.535156 -5.34375 9.691406 -4.460938 9.640625 -3.453125 L 3 -3.453125 C 3.113281 -2.878906 3.363281 -2.441406 3.75 -2.140625 C 4.132812 -1.847656 4.601562 -1.703125 5.15625 -1.703125 C 5.550781 -1.703125 5.914062 -1.773438 6.25 -1.921875 C 6.582031 -2.078125 6.847656 -2.289062 7.046875 -2.5625 L 9.46875 -2.5625 C 9.113281 -1.695312 8.550781 -1.015625 7.78125 -0.515625 C 7.019531 -0.0234375 6.128906 0.21875 5.109375 0.21875 Z M 3.015625 -4.96875 L 7.3125 -4.96875 C 7.175781 -5.46875 6.921875 -5.863281 6.546875 -6.15625 C 6.171875 -6.445312 5.707031 -6.59375 5.15625 -6.59375 C 4.625 -6.59375 4.164062 -6.445312 3.78125 -6.15625 C 3.40625 -5.863281 3.148438 -5.46875 3.015625 -4.96875 Z M 3.015625 -4.96875 "/></g></g></g><g fill="#8c52ff" fill-opacity="1"><g transform="translate(143.277119, 40.991841)"><g><path d="M 1.203125 0 L 1.203125 -11.671875 L 3.59375 -11.671875 L 3.59375 0 Z M 1.203125 0 "/></g></g></g><g fill="#8c52ff" fill-opacity="1"><g transform="translate(148.068441, 40.991841)"><g><path d="M 2.015625 -8.9375 C 2.015625 -9.914062 2.28125 -10.664062 2.8125 -11.1875 C 3.34375 -11.707031 4.101562 -11.96875 5.09375 -11.96875 L 6.921875 -11.96875 L 6.921875 -10.078125 L 5.609375 -10.078125 C 5.179688 -10.078125 4.863281 -9.972656 4.65625 -9.765625 C 4.457031 -9.554688 4.359375 -9.238281 4.359375 -8.8125 L 4.359375 -8.28125 L 6.84375 -8.28125 L 6.84375 -6.328125 L 4.421875 -6.328125 L 4.421875 0 L 2.015625 0 L 2.015625 -6.328125 L 0.359375 -6.328125 L 0.359375 -8.28125 L 2.015625 -8.28125 Z M 2.015625 -8.9375 "/></g></g></g><g clip-path="url(#6cf7b35ceb)"><g clip-path="url(#fc93403b5c)"><path fill="#8c52ff" d="M 0.816406 0 L 52.695312 0 L 52.695312 45.328125 L 0.816406 45.328125 Z M 0.816406 0 " fill-opacity="1" fill-rule="nonzero"/></g></g><g clip-path="url(#41cbff40f5)"><g clip-path="url(#edde1c1c72)"><path fill="#222222" d="M 3.441406 1.261719 L 53.875 1.261719 L 53.875 45.328125 L 3.441406 45.328125 Z M 3.441406 1.261719 " fill-opacity="1" fill-rule="nonzero"/></g></g></svg>